<svg width="844" height="162" viewBox="0 0 844 162" fill="none" xmlns="http://www.w3.org/2000/svg">
<path d="M262.742 112.719H208.883L199.812 131H170.703L221.258 34.3906H250.367L300.922 131H271.812L262.742 112.719ZM218.234 93.875H253.531L235.953 58.2969L218.234 93.875ZM435.078 82.625C435.078 88.8125 434.398 94.3203 433.039 99.1484C431.68 103.93 429.758 108.102 427.273 111.664C424.836 115.227 421.883 118.25 418.414 120.734C414.992 123.219 411.172 125.211 406.953 126.711C402.734 128.211 398.188 129.312 393.312 130.016C388.438 130.672 383.352 131 378.055 131H316.742V34.3906H377.914C383.211 34.3906 388.297 34.7422 393.172 35.4453C398.047 36.1016 402.594 37.1797 406.812 38.6797C411.078 40.1797 414.945 42.1719 418.414 44.6562C421.883 47.0938 424.836 50.1172 427.273 53.7266C429.758 57.2891 431.68 61.4609 433.039 66.2422C434.398 71.0234 435.078 76.4844 435.078 82.625ZM408.781 82.625C408.781 77.9844 408.172 73.9531 406.953 70.5312C405.781 67.1094 403.859 64.2969 401.188 62.0938C398.562 59.8438 395.117 58.1797 390.852 57.1016C386.586 55.9766 381.383 55.4141 375.242 55.4141H342.828V109.977H375.242C381.383 109.977 386.586 109.438 390.852 108.359C395.117 107.234 398.562 105.547 401.188 103.297C403.859 101 405.781 98.1406 406.953 94.7188C408.172 91.2969 408.781 87.2656 408.781 82.625ZM458.914 131V34.3906H485V131H458.914ZM629.352 98.4453C629.352 103.273 628.156 107.82 625.766 112.086C623.375 116.352 619.789 120.078 615.008 123.266C610.227 126.453 604.25 128.984 597.078 130.859C589.953 132.688 581.609 133.602 572.047 133.602C562.484 133.602 554.094 132.688 546.875 130.859C539.703 128.984 533.727 126.453 528.945 123.266C524.164 120.078 520.578 116.352 518.188 112.086C515.797 107.82 514.602 103.273 514.602 98.4453V34.3906H540.617V89.0938C540.617 92.3281 541.016 95.3984 541.812 98.3047C542.656 101.164 544.203 103.672 546.453 105.828C548.75 107.984 551.938 109.695 556.016 110.961C560.141 112.227 565.484 112.859 572.047 112.859C578.562 112.859 583.859 112.227 587.938 110.961C592.016 109.695 595.18 107.984 597.43 105.828C599.727 103.672 601.273 101.164 602.07 98.3047C602.867 95.3984 603.266 92.3281 603.266 89.0938V34.3906H629.352V98.4453ZM781.719 131V63.1484L745.859 131H720.828L684.969 63.1484V131H658.883V34.3906H694.32L733.344 107.516L772.367 34.3906H807.664V131H781.719Z" fill="black"/>
<path d="M165 81C165 122.749 129.413 157 85 157C40.5874 157 5 122.749 5 81C5 39.2507 40.5874 5 85 5C129.413 5 165 39.2507 165 81Z" stroke="black" stroke-width="10"/>
<path d="M64.2031 131H38.1172V34.3906H103.508C110.539 34.3906 116.492 35.1172 121.367 36.5703C126.289 38.0234 130.273 40.0859 133.32 42.7578C136.414 45.4297 138.641 48.6641 140 52.4609C141.406 56.2109 142.109 60.4062 142.109 65.0469C142.109 69.125 141.523 72.6875 140.352 75.7344C139.227 78.7812 137.68 81.4062 135.711 83.6094C133.789 85.7656 131.539 87.5938 128.961 89.0938C126.383 90.5938 123.664 91.8359 120.805 92.8203L152.445 131H121.93L92.6797 95.4219H64.2031V131ZM115.742 64.9062C115.742 63.0312 115.484 61.4375 114.969 60.125C114.5 58.8125 113.656 57.7578 112.438 56.9609C111.219 56.1172 109.578 55.5078 107.516 55.1328C105.5 54.7578 102.969 54.5703 99.9219 54.5703H64.2031V75.2422H99.9219C102.969 75.2422 105.5 75.0547 107.516 74.6797C109.578 74.3047 111.219 73.7188 112.438 72.9219C113.656 72.0781 114.5 71 114.969 69.6875C115.484 68.375 115.742 66.7812 115.742 64.9062Z" fill="black"/>
</svg>
